<?xml version="1.0" encoding="UTF-8" standalone="no"?>
<!DOCTYPE svg PUBLIC "-//W3C//DTD SVG 1.1//EN" "http://www.w3.org/Graphics/SVG/1.1/DTD/svg11.dtd">
<svg xmlns="http://www.w3.org/2000/svg" version="1.1" viewBox="0.00 0.00 851.00 293.00">
<path fill="#ffd6b6" d="
  M 278.3039 199.2161
  A 12.91 12.91 0.0 0 1 265.4164 212.1486
  L 160.7766 212.3312
  A 12.91 12.91 0.0 0 1 147.8441 199.4438
  L 147.6561 91.7639
  A 12.91 12.91 0.0 0 1 160.5436 78.8314
  L 265.1834 78.6488
  A 12.91 12.91 0.0 0 1 278.1159 91.5362
  L 278.3039 199.2161
  Z
  M 221.45 177.90
  Q 222.21 177.71 222.69 178.34
  L 232.44 191.33
  Q 232.76 191.75 233.27 191.75
  L 256.67 191.75
  A 0.40 0.40 0.0 0 0 256.99 191.10
  L 239.85 168.68
  A 0.57 0.57 0.0 0 1 239.89 167.93
  C 260.61 146.62 252.74 107.77 222.69 99.84
  C 209.27 96.30 193.79 98.33 182.85 107.02
  C 167.89 118.92 164.93 141.91 173.19 158.35
  C 181.88 175.65 202.96 182.57 221.45 177.90
  Z"
/>
<path fill="#ffd6b6" d="
  M 327.98 105.38
  C 331.62 109.03 339.19 115.04 341.28 119.23
  C 343.36 123.40 338.92 128.31 334.57 127.46
  Q 332.53 127.06 330.03 124.59
  Q 319.80 114.51 309.70 104.29
  C 304.46 98.98 306.10 92.80 314.05 92.77
  C 323.79 92.74 337.64 91.41 346.20 93.89
  C 369.84 100.73 370.93 134.62 347.15 142.48
  C 341.37 144.39 333.49 143.73 326.81 144.02
  A 0.37 0.36 -22.1 0 0 326.55 144.62
  Q 333.21 152.05 339.70 159.55
  C 342.14 162.37 342.49 165.50 339.80 168.30
  C 335.98 172.29 332.22 169.32 329.23 165.93
  Q 319.36 154.74 309.52 143.51
  C 304.85 138.18 305.85 131.80 313.94 131.77
  Q 325.23 131.74 336.53 131.75
  C 342.69 131.75 347.54 130.49 350.55 125.31
  C 355.71 116.45 350.11 105.60 339.81 104.91
  Q 334.01 104.52 328.19 104.84
  Q 327.48 104.88 327.98 105.38
  Z"
/>
<path fill="#ffd6b6" d="
  M 432.99 98.00
  C 432.98 91.45 444.98 90.22 444.99 99.82
  Q 444.99 119.66 444.97 139.50
  Q 444.95 151.30 454.70 156.24
  C 457.17 157.50 459.91 157.62 462.79 158.19
  C 467.32 159.08 469.42 163.31 466.96 167.43
  C 464.82 171.03 457.48 170.02 454.11 168.92
  Q 438.69 163.87 434.32 149.41
  Q 432.96 144.88 432.98 135.96
  Q 433.03 116.97 432.99 98.00
  Z"
/>
<path fill="#ffd6b6" d="
  M 469.19 95.44
  C 471.67 91.37 477.65 92.21 479.50 96.26
  Q 480.21 97.81 480.22 101.47
  Q 480.27 119.76 480.25 138.04
  C 480.24 146.81 482.37 152.99 490.43 156.59
  C 493.62 158.01 498.80 157.22 501.42 159.92
  C 504.94 163.55 502.64 169.99 497.24 169.99
  C 484.75 170.00 473.06 161.92 469.45 149.91
  Q 468.09 145.41 468.01 132.84
  Q 467.90 116.80 467.83 100.76
  Q 467.82 97.68 469.19 95.44
  Z"
/>
<path fill="#ffd6b6" d="
  M 509.90 113.29
  C 519.30 82.17 566.23 88.31 566.78 121.26
  C 566.87 126.55 560.45 129.74 556.55 125.85
  C 554.72 124.01 554.66 121.35 554.27 118.73
  C 551.35 99.26 521.96 100.46 520.93 121.62
  Q 520.26 135.40 521.15 143.58
  C 523.04 160.99 548.19 162.91 553.94 146.07
  C 554.92 143.22 553.95 139.71 556.53 137.04
  C 561.36 132.02 567.31 137.23 566.67 143.13
  C 563.97 167.76 535.49 179.16 517.33 161.65
  C 507.09 151.78 508.74 139.06 508.74 125.82
  Q 508.73 117.16 509.90 113.29
  Z"
/>
<path fill="#ffd6b6" d="
  M 652.31 153.19
  Q 656.54 156.91 659.26 157.25
  C 663.27 157.75 667.19 157.88 668.97 160.41
  C 673.05 166.21 667.34 170.33 661.90 169.92
  C 650.37 169.06 640.18 161.17 636.58 150.33
  Q 635.03 145.68 635.01 134.37
  Q 634.99 117.85 635.00 101.33
  Q 635.00 97.52 635.86 95.82
  C 638.60 90.44 647.21 92.89 647.23 98.56
  Q 647.27 118.40 647.25 138.24
  C 647.24 144.24 648.11 149.48 652.31 153.19
  Z"
/>
<path fill="#ffd6b6" d="
  M 670.00 100.35
  C 669.67 90.59 682.20 89.80 682.23 100.27
  Q 682.28 120.00 682.23 139.74
  Q 682.21 152.45 693.59 156.88
  C 695.96 157.81 699.12 157.58 701.50 158.51
  C 708.01 161.05 705.68 170.38 698.25 170.03
  C 685.82 169.45 675.08 161.52 671.45 149.64
  Q 670.25 145.72 670.12 137.24
  C 669.93 124.98 670.41 112.59 670.00 100.35
  Z"
/>
<path fill="#ffd6b6" d="
  M 427.20 141.66
  A 28.44 28.44 0.0 0 1 398.76 170.10
  A 28.44 28.44 0.0 0 1 370.32 141.66
  A 28.44 28.44 0.0 0 1 398.76 113.22
  A 28.44 28.44 0.0 0 1 427.20 141.66
  Z
  M 415.14 141.58
  A 16.37 16.37 0.0 0 0 398.77 125.21
  A 16.37 16.37 0.0 0 0 382.40 141.58
  A 16.37 16.37 0.0 0 0 398.77 157.95
  A 16.37 16.37 0.0 0 0 415.14 141.58
  Z"
/>
<path fill="#ffd6b6" d="
  M 616.99 165.28
  Q 599.60 175.02 585.06 165.14
  C 554.40 144.29 583.93 98.20 616.86 118.06
  Q 617.40 118.39 617.60 117.79
  C 619.24 112.91 625.47 111.54 628.18 115.44
  Q 629.48 117.32 629.49 121.48
  Q 629.51 142.86 629.50 164.25
  C 629.50 170.95 620.08 172.12 617.60 165.50
  Q 617.42 165.04 616.99 165.28
  Z
  M 617.24 141.58
  A 16.37 16.37 0.0 0 0 600.87 125.21
  A 16.37 16.37 0.0 0 0 584.50 141.58
  A 16.37 16.37 0.0 0 0 600.87 157.95
  A 16.37 16.37 0.0 0 0 617.24 141.58
  Z"
/>
<path fill="#ffd6b6" d="
  M 198.95 146.57
  L 209.06 159.98
  Q 209.52 160.59 208.77 160.68
  C 197.51 162.15 189.54 151.89 188.67 141.56
  C 187.30 125.26 196.16 115.19 212.97 116.59
  C 231.09 118.10 235.47 138.47 228.15 152.02
  A 0.47 0.47 0.0 0 1 227.36 152.09
  L 222.98 146.40
  Q 222.67 146.00 222.16 146.00
  L 199.23 146.00
  Q 198.51 146.00 198.95 146.57
  Z"
/>
<path fill="#ffd6b6" d="
  M 312.37 185.38
  A 2.54 2.54 0.0 0 1 317.09 185.38
  L 322.49 198.73
  A 0.67 0.67 0.0 0 1 322.07 199.61
  Q 318.17 200.83 317.87 197.10
  A 0.66 0.65 -2.4 0 0 317.21 196.50
  L 312.31 196.50
  A 0.82 0.81 -85.9 0 0 311.51 197.20
  Q 311.08 200.52 307.28 199.56
  Q 306.70 199.41 306.92 198.86
  L 312.37 185.38
  Z
  M 314.28 189.81
  L 313.21 192.46
  A 0.53 0.53 0.0 0 0 313.58 193.17
  Q 315.83 193.67 315.89 192.34
  Q 315.97 190.49 315.09 189.64
  Q 314.56 189.12 314.28 189.81
  Z"
/>
<path fill="#ffd6b6" d="
  M 327.95 184.25
  L 339.84 184.25
  A 0.64 0.64 0.0 0 1 340.48 184.88
  L 340.50 186.97
  A 0.64 0.64 0.0 0 1 339.83 187.62
  L 336.42 187.46
  A 0.64 0.64 0.0 0 0 335.75 188.10
  L 335.75 199.13
  A 0.64 0.64 0.0 0 1 335.09 199.77
  L 332.60 199.70
  A 0.64 0.64 0.0 0 1 331.98 199.06
  L 332.01 188.14
  A 0.64 0.64 0.0 0 0 331.37 187.50
  L 327.87 187.50
  A 0.64 0.64 0.0 0 1 327.23 186.83
  L 327.31 184.86
  A 0.64 0.64 0.0 0 1 327.95 184.25
  Z"
/>
<path fill="#ffd6b6" d="
  M 351.02 187.50
  L 347.65 187.50
  A 0.64 0.64 0.0 0 1 347.01 186.86
  L 347.01 184.89
  A 0.64 0.64 0.0 0 1 347.65 184.25
  L 359.62 184.25
  A 0.64 0.64 0.0 0 1 360.26 184.90
  L 360.23 186.87
  A 0.64 0.64 0.0 0 1 359.59 187.50
  L 356.14 187.50
  A 0.64 0.64 0.0 0 0 355.50 188.14
  L 355.50 199.11
  A 0.64 0.64 0.0 0 1 354.86 199.75
  L 352.39 199.75
  A 0.64 0.64 0.0 0 1 351.75 199.12
  L 351.66 188.13
  A 0.64 0.64 0.0 0 0 351.02 187.50
  Z"
/>
<path fill="#ffd6b6" d="
  M 371.49 194.26
  L 371.53 195.62
  A 0.65 0.64 -0.4 0 0 372.18 196.25
  L 378.75 196.25
  Q 379.25 196.25 379.25 196.75
  L 379.25 199.25
  Q 379.25 199.75 378.75 199.75
  L 368.25 199.75
  Q 367.75 199.75 367.75 199.25
  L 367.75 184.75
  Q 367.75 184.25 368.25 184.25
  L 378.62 184.25
  Q 379.25 184.25 379.25 184.88
  L 379.25 187.04
  Q 379.25 187.69 378.60 187.64
  Q 375.87 187.39 373.20 187.50
  Q 372.04 187.55 371.64 188.17
  Q 371.18 188.86 371.63 189.84
  Q 371.81 190.25 372.26 190.25
  L 377.13 190.25
  Q 377.75 190.25 377.75 190.88
  L 377.75 193.13
  Q 377.75 193.75 377.12 193.75
  L 371.99 193.75
  Q 371.48 193.75 371.49 194.26
  Z"
/>
<path fill="#ffd6b6" d="
  M 397.10 192.54
  L 397.11 184.82
  Q 397.11 184.25 397.68 184.25
  L 400.50 184.25
  Q 401.06 184.25 401.06 184.81
  L 400.97 198.95
  Q 400.97 199.38 400.54 199.44
  L 397.78 199.78
  A 0.88 0.87 -20.4 0 1 396.94 199.40
  L 391.55 191.39
  Q 391.00 190.58 391.00 191.55
  L 391.00 199.08
  Q 391.00 199.73 390.36 199.73
  L 387.83 199.76
  A 0.61 0.61 0.0 0 1 387.22 199.15
  L 387.26 184.87
  A 0.63 0.62 -89.5 0 1 387.88 184.25
  L 390.45 184.25
  Q 391.07 184.25 391.41 184.77
  L 396.68 192.67
  A 0.23 0.23 0.0 0 0 397.10 192.54
  Z"
/>
<path fill="#ffd6b6" d="
  M 409.48 184.85
  A 0.62 0.62 0.0 0 1 410.10 184.23
  L 415.31 184.22
  A 7.69 7.27 -0.1 0 1 423.01 191.48
  L 423.01 192.40
  A 7.69 7.27 -0.1 0 1 415.33 199.68
  L 410.12 199.69
  A 0.62 0.62 0.0 0 1 409.50 199.07
  L 409.48 184.85
  Z
  M 413.24 187.97
  L 413.26 195.89
  A 0.40 0.40 0.0 0 0 413.67 196.29
  L 414.90 196.28
  A 4.37 4.23 -0.2 0 0 419.25 192.04
  L 419.25 191.78
  A 4.37 4.23 -0.2 0 0 414.86 187.56
  L 413.63 187.57
  A 0.40 0.40 0.0 0 0 413.24 187.97
  Z"
/>
<path fill="#ffd6b6" d="
  M 435.46 185.49
  A 2.60 2.60 0.0 0 1 440.28 185.48
  L 445.69 198.73
  A 0.68 0.68 0.0 0 1 445.04 199.67
  L 442.40 199.61
  A 0.80 0.80 0.0 0 1 441.66 199.07
  L 440.96 197.01
  Q 440.79 196.50 440.25 196.50
  L 435.47 196.50
  Q 434.83 196.50 434.73 197.13
  Q 434.20 200.61 430.40 199.46
  Q 429.91 199.31 430.10 198.83
  L 435.46 185.49
  Z
  M 437.56 189.25
  L 436.46 192.69
  Q 436.24 193.38 436.95 193.26
  L 438.95 192.94
  Q 439.29 192.89 439.20 192.56
  L 438.29 189.26
  A 0.38 0.38 0.0 0 0 437.56 189.25
  Z"
/>
<path fill="#ffd6b6" d="
  M 463.32 192.44
  L 463.21 184.58
  A 0.33 0.33 0.0 0 1 463.54 184.25
  L 466.74 184.25
  A 0.33 0.33 0.0 0 1 467.07 184.58
  L 466.97 199.17
  A 0.33 0.33 0.0 0 1 466.64 199.50
  L 463.22 199.50
  A 0.33 0.33 0.0 0 1 462.94 199.35
  L 457.55 191.13
  A 0.33 0.33 0.0 0 0 456.95 191.33
  L 457.32 199.41
  A 0.33 0.33 0.0 0 1 456.99 199.76
  L 453.58 199.73
  A 0.33 0.33 0.0 0 1 453.25 199.40
  L 453.25 184.58
  A 0.33 0.33 0.0 0 1 453.58 184.25
  L 456.91 184.25
  A 0.33 0.33 0.0 0 1 457.19 184.40
  L 462.71 192.63
  A 0.33 0.33 0.0 0 0 463.32 192.44
  Z"
/>
<path fill="#ffd6b6" d="
  M 487.23 199.36
  C 471.04 202.80 470.78 181.05 487.37 184.64
  Q 487.96 184.76 487.96 185.37
  L 487.96 187.70
  Q 487.96 188.53 487.16 188.29
  C 475.65 184.82 476.52 199.42 487.09 195.55
  A 0.49 0.49 0.0 0 1 487.75 196.01
  L 487.75 198.73
  Q 487.75 199.26 487.23 199.36
  Z"
/>
<path fill="#ffd6b6" d="
  M 506.93 199.75
  L 496.17 199.75
  A 0.42 0.42 0.0 0 1 495.75 199.33
  L 495.75 184.67
  A 0.42 0.42 0.0 0 1 496.17 184.25
  L 506.83 184.25
  A 0.42 0.42 0.0 0 1 507.25 184.67
  L 507.25 187.10
  A 0.42 0.42 0.0 0 1 506.83 187.52
  L 499.92 187.57
  A 0.42 0.42 0.0 0 0 499.50 187.99
  L 499.50 189.83
  A 0.42 0.42 0.0 0 0 499.92 190.25
  L 505.33 190.25
  A 0.42 0.42 0.0 0 1 505.75 190.67
  L 505.75 193.33
  A 0.42 0.42 0.0 0 1 505.33 193.75
  L 499.91 193.75
  A 0.42 0.42 0.0 0 0 499.49 194.18
  L 499.53 195.69
  A 0.42 0.42 0.0 0 0 499.94 196.10
  L 507.00 196.26
  A 0.42 0.42 0.0 0 1 507.41 196.69
  L 507.35 199.34
  A 0.42 0.42 0.0 0 1 506.93 199.75
  Z"
/>
<path fill="#ffd6b6" d="
  M 543.89 190.33
  L 549.22 189.96
  A 0.57 0.57 0.0 0 1 549.83 190.56
  L 549.65 193.30
  A 0.57 0.57 0.0 0 1 549.07 193.83
  L 543.83 193.72
  A 0.57 0.57 0.0 0 0 543.25 194.29
  L 543.25 195.73
  A 0.57 0.57 0.0 0 0 543.84 196.30
  L 550.56 196.10
  A 0.57 0.57 0.0 0 1 551.14 196.63
  L 551.29 199.15
  A 0.57 0.57 0.0 0 1 550.72 199.75
  L 540.07 199.75
  A 0.57 0.57 0.0 0 1 539.50 199.18
  L 539.50 184.82
  A 0.57 0.57 0.0 0 1 540.07 184.25
  L 550.68 184.25
  A 0.57 0.57 0.0 0 1 551.25 184.82
  L 551.25 187.18
  A 0.57 0.57 0.0 0 1 550.68 187.75
  L 543.82 187.75
  A 0.57 0.57 0.0 0 0 543.25 188.34
  L 543.28 189.78
  A 0.57 0.57 0.0 0 0 543.89 190.33
  Z"
/>
<path fill="#ffd6b6" d="
  M 563.28 185.62
  A 2.67 2.67 0.0 0 1 568.23 185.62
  L 573.67 199.07
  A 0.50 0.49 -11.1 0 1 573.21 199.75
  L 570.25 199.75
  A 0.75 0.75 0.0 0 1 569.54 199.24
  L 568.80 197.04
  A 0.76 0.76 0.0 0 0 568.07 196.53
  L 563.36 196.57
  A 0.76 0.74 -79.9 0 0 562.66 197.07
  L 561.95 199.17
  A 0.89 0.88 -80.1 0 1 561.12 199.76
  L 558.19 199.74
  A 0.45 0.45 0.0 0 1 557.78 199.12
  L 563.28 185.62
  Z
  M 564.30 192.57
  A 0.35 0.35 0.0 0 0 564.64 193.02
  L 566.85 192.97
  A 0.35 0.35 0.0 0 0 567.17 192.50
  L 565.99 189.40
  A 0.35 0.35 0.0 0 0 565.33 189.41
  L 564.30 192.57
  Z"
/>
<path fill="#ffd6b6" d="
  M 588.72 195.78
  A 1.16 1.16 0.0 0 0 587.70 194.08
  C 584.35 194.05 579.87 192.01 580.46 187.93
  C 581.13 183.30 587.96 184.02 591.66 184.55
  Q 592.25 184.63 592.25 185.23
  L 592.25 187.34
  Q 592.25 187.92 591.67 187.91
  L 584.99 187.72
  A 1.02 1.02 0.0 0 0 584.77 189.75
  C 587.95 190.36 595.12 192.08 592.18 197.19
  C 590.33 200.39 584.05 200.01 580.88 199.43
  Q 580.23 199.31 580.24 198.66
  L 580.27 196.65
  Q 580.28 195.92 581.01 196.01
  Q 584.40 196.41 587.73 196.10
  Q 588.59 196.03 588.72 195.78
  Z"
/>
<path fill="#ffd6b6" d="
  M 604.29 193.85
  Q 598.57 191.22 599.93 184.72
  A 0.60 0.60 0.0 0 1 600.52 184.24
  L 603.12 184.27
  A 0.50 0.50 0.0 0 1 603.61 184.88
  Q 603.00 187.55 604.33 189.79
  A 1.13 1.13 0.0 0 0 604.96 190.29
  C 609.07 191.60 610.02 188.09 609.42 184.97
  A 0.60 0.60 0.0 0 1 610.01 184.25
  L 612.48 184.25
  Q 612.97 184.25 613.08 184.73
  Q 614.46 191.09 608.96 193.79
  Q 608.50 194.02 608.50 194.53
  L 608.50 199.10
  Q 608.50 199.77 607.83 199.76
  L 605.25 199.71
  Q 604.64 199.69 604.66 199.08
  L 604.78 194.65
  Q 604.80 194.09 604.29 193.85
  Z"
/>
<circle fill="#ffd6b6" cx="517.46" cy="197.62" r="2.15"/>
<circle fill="#ffd6b6" cx="623.33" cy="197.64" r="2.13"/>
</svg>
